<?xml version="1.0" encoding="UTF-8" standalone="no"?>
<svg
   xmlns:dc="http://purl.org/dc/elements/1.1/"
   xmlns:cc="http://creativecommons.org/ns#"
   xmlns:rdf="http://www.w3.org/1999/02/22-rdf-syntax-ns#"
   xmlns:svg="http://www.w3.org/2000/svg"
   xmlns="http://www.w3.org/2000/svg"
   xmlns:sodipodi="http://sodipodi.sourceforge.net/DTD/sodipodi-0.dtd"
   xmlns:inkscape="http://www.inkscape.org/namespaces/inkscape"
   aria-hidden="true"
   data-prefix="fas"
   data-icon="download"
   role="img"
   viewBox="0 0 14 14"
   class="svg-inline--fa fa-download fa-w-16"
   style="font-size:48px"
   id="svg4141"
   version="1.1"
   inkscape:version="0.91 r13725"
   sodipodi:docname="download-h14.svg"
   width="14"
   height="14">
  <metadata
     id="metadata4149">
    <rdf:RDF>
      <cc:Work
         rdf:about="">
        <dc:format>image/svg+xml</dc:format>
        <dc:type
           rdf:resource="http://purl.org/dc/dcmitype/StillImage" />
        <dc:title></dc:title>
      </cc:Work>
    </rdf:RDF>
  </metadata>
  <defs
     id="defs4147" />
  <sodipodi:namedview
     pagecolor="#ffffff"
     bordercolor="#666666"
     borderopacity="1"
     objecttolerance="10"
     gridtolerance="10"
     guidetolerance="10"
     inkscape:pageopacity="0"
     inkscape:pageshadow="2"
     inkscape:window-width="1440"
     inkscape:window-height="837"
     id="namedview4145"
     showgrid="false"
     fit-margin-top="0"
     fit-margin-left="0"
     fit-margin-right="0"
     fit-margin-bottom="0"
     inkscape:zoom="3.6875"
     inkscape:cx="-41.318805"
     inkscape:cy="11.776487"
     inkscape:window-x="-8"
     inkscape:window-y="-8"
     inkscape:window-maximized="1"
     inkscape:current-layer="svg4141" />
  <path
     d="m 5.90625,0 2.1875,0 C 8.4574219,0 8.75,0.29258 8.75,0.65625 l 0,4.59375 2.398047,0 c 0.486719,0 0.730078,0.58789 0.385547,0.93242 l -4.1589846,4.16172 c -0.2050782,0.20508 -0.5414063,0.20508 -0.7464844,0 L 2.4636719,6.18242 C 2.1191406,5.83789 2.3625,5.25 2.8492187,5.25 L 5.25,5.25 5.25,0.65625 C 5.25,0.29258 5.5425781,0 5.90625,0 Z M 14,10.28125 l 0,3.0625 C 14,13.70742 13.707422,14 13.34375,14 L 0.65625,14 C 0.29257812,14 0,13.70742 0,13.34375 l 0,-3.0625 C 0,9.91758 0.29257812,9.625 0.65625,9.625 l 4.0113281,0 1.3398438,1.33984 c 0.5496093,0.54961 1.4355468,0.54961 1.9851562,0 L 9.3324219,9.625 l 4.0113281,0 C 13.707422,9.625 14,9.91758 14,10.28125 Z m -3.390625,2.40625 c 0,-0.30078 -0.246094,-0.54688 -0.546875,-0.54688 -0.3007812,0 -0.546875,0.2461 -0.546875,0.54688 0,0.30078 0.2460938,0.54687 0.546875,0.54687 0.300781,0 0.546875,-0.24609 0.546875,-0.54687 z m 1.75,0 c 0,-0.30078 -0.246094,-0.54688 -0.546875,-0.54688 -0.300781,0 -0.546875,0.2461 -0.546875,0.54688 0,0.30078 0.246094,0.54687 0.546875,0.54687 0.300781,0 0.546875,-0.24609 0.546875,-0.54687 z"
     class=""
     id="path4143"
     inkscape:connector-curvature="0"
     style="fill:#268bd2;fill-opacity:1" />
</svg>
