<?xml version="1.0" encoding="UTF-8" standalone="no"?>
<svg
   xmlns:dc="http://purl.org/dc/elements/1.1/"
   xmlns:cc="http://creativecommons.org/ns#"
   xmlns:rdf="http://www.w3.org/1999/02/22-rdf-syntax-ns#"
   xmlns:svg="http://www.w3.org/2000/svg"
   xmlns="http://www.w3.org/2000/svg"
   xmlns:sodipodi="http://sodipodi.sourceforge.net/DTD/sodipodi-0.dtd"
   xmlns:inkscape="http://www.inkscape.org/namespaces/inkscape"
   aria-hidden="true"
   data-prefix="fas"
   data-icon="cloud-download-alt"
   role="img"
   viewBox="0 0 22.857145 16.000001"
   class="svg-inline--fa fa-cloud-download-alt fa-w-20"
   style="font-size:48px"
   id="svg4136"
   version="1.1"
   inkscape:version="0.91 r13725"
   sodipodi:docname="cloud-download-h16.svg"
   width="22.857145"
   height="16">
  <metadata
     id="metadata4144">
    <rdf:RDF>
      <cc:Work
         rdf:about="">
        <dc:format>image/svg+xml</dc:format>
        <dc:type
           rdf:resource="http://purl.org/dc/dcmitype/StillImage" />
        <dc:title></dc:title>
      </cc:Work>
    </rdf:RDF>
  </metadata>
  <defs
     id="defs4142" />
  <sodipodi:namedview
     pagecolor="#ffffff"
     bordercolor="#666666"
     borderopacity="1"
     objecttolerance="10"
     gridtolerance="10"
     guidetolerance="10"
     inkscape:pageopacity="0"
     inkscape:pageshadow="2"
     inkscape:window-width="1440"
     inkscape:window-height="837"
     id="namedview4140"
     showgrid="false"
     fit-margin-top="0"
     fit-margin-left="0"
     fit-margin-right="0"
     fit-margin-bottom="0"
     inkscape:zoom="1.25"
     inkscape:cx="6.999999"
     inkscape:cy="4.8999977"
     inkscape:window-x="-8"
     inkscape:window-y="-8"
     inkscape:window-maximized="1"
     inkscape:current-layer="svg4136" />
  <path
     d="m 22.857144,11.428573 c 0,2.524719 -2.046709,4.571429 -4.571428,4.571429 l -13.1428592,0 C 2.3025298,16.000002 -9.5367437e-7,13.697471 -9.5367437e-7,10.857145 -9.5367437e-7,8.6152499 1.4346768,6.7087518 3.4358524,6.0047518 A 5.845715,5.845715 0 0 1 3.4285724,5.7142864 C 3.4285724,2.5583514 5.9869237,0 9.1428591,0 11.26028,0 13.108639,1.1517063 14.095855,2.8628247 c 0.544686,-0.3644733 1.199543,-0.5771101 1.904148,-0.5771101 1.893534,0 3.428571,1.5350368 3.428571,3.4285718 0,0.4351348 -0.0813,0.8512817 -0.229109,1.2342859 2.086857,0.4233634 3.657681,2.2682126 3.657681,4.4800007 z m -8.808115,-2.2857151 -2.334743,0 0,-4.0000001 c 0,-0.3156082 -0.255852,-0.5714286 -0.571429,-0.5714286 l -1.7142858,0 c -0.3155752,0 -0.5714283,0.2558204 -0.5714283,0.5714286 l 0,4.0000001 -2.3347431,0 c -0.5090777,0 -0.7640491,0.615495 -0.4040816,0.9754951 l 3.7633312,3.76333 c 0.2231346,0.223135 0.5849636,0.223135 0.8080976,0 l 3.76333,-3.76333 c 0.36,-0.3600001 0.104981,-0.9754951 -0.404048,-0.9754951 z"
     class=""
     id="path4138"
     inkscape:connector-curvature="0"
     style="fill:currentColor" />
</svg>
