<?xml version="1.0" encoding="UTF-8" standalone="no"?>
<svg
   xmlns:dc="http://purl.org/dc/elements/1.1/"
   xmlns:cc="http://creativecommons.org/ns#"
   xmlns:rdf="http://www.w3.org/1999/02/22-rdf-syntax-ns#"
   xmlns:svg="http://www.w3.org/2000/svg"
   xmlns="http://www.w3.org/2000/svg"
   xmlns:sodipodi="http://sodipodi.sourceforge.net/DTD/sodipodi-0.dtd"
   xmlns:inkscape="http://www.inkscape.org/namespaces/inkscape"
   aria-hidden="true"
   data-prefix="fas"
   data-icon="cloud-download-alt"
   role="img"
   viewBox="0 0 18 12.600001"
   class="svg-inline--fa fa-cloud-download-alt fa-w-20"
   style="font-size:48px"
   id="svg4136"
   version="1.1"
   inkscape:version="0.91 r13725"
   sodipodi:docname="cloud-download-18.svg"
   width="18"
   height="12.6">
  <metadata
     id="metadata4144">
    <rdf:RDF>
      <cc:Work
         rdf:about="">
        <dc:format>image/svg+xml</dc:format>
        <dc:type
           rdf:resource="http://purl.org/dc/dcmitype/StillImage" />
        <dc:title></dc:title>
      </cc:Work>
    </rdf:RDF>
  </metadata>
  <defs
     id="defs4142" />
  <sodipodi:namedview
     pagecolor="#ffffff"
     bordercolor="#666666"
     borderopacity="1"
     objecttolerance="10"
     gridtolerance="10"
     guidetolerance="10"
     inkscape:pageopacity="0"
     inkscape:pageshadow="2"
     inkscape:window-width="1440"
     inkscape:window-height="837"
     id="namedview4140"
     showgrid="false"
     fit-margin-top="0"
     fit-margin-left="0"
     fit-margin-right="0"
     fit-margin-bottom="0"
     inkscape:zoom="1.25"
     inkscape:cx="7"
     inkscape:cy="4.9"
     inkscape:window-x="-8"
     inkscape:window-y="-8"
     inkscape:window-maximized="1"
     inkscape:current-layer="svg4136" />
  <path
     d="m 18,9 c 0,1.988216 -1.611784,3.6 -3.6,3.6 l -10.35,0 C 1.8132428,12.6 0,10.786757 0,8.55 0,6.7845086 1.1298086,5.2831414 2.7057342,4.7287414 A 4.6035,4.6035 0 0 1 2.7,4.5 C 2.7,2.0147014 4.7147014,0 7.2,0 8.8674686,0 10.323051,0.90696858 11.100484,2.2544742 11.529424,1.9674514 12.045124,1.8 12.6,1.8 c 1.491158,0 2.7,1.2088414 2.7,2.7 0,0.3426686 -0.06402,0.6703842 -0.180424,0.972 C 16.762976,5.8053986 18,7.2582172 18,9 Z m -6.93639,-1.8 -1.83861,0 0,-3.15 C 9.225,3.8014586 9.0235158,3.6 8.775,3.6 l -1.35,0 c -0.2485158,0 -0.45,0.2014586 -0.45,0.45 l 0,3.15 -1.83861,0 C 4.7354914,7.2 4.5347014,7.6847014 4.8181758,7.9682014 l 2.9636228,2.9636226 c 0.1757186,0.175719 0.4606586,0.175719 0.6363772,0 L 11.381798,7.9682014 C 11.665298,7.6847014 11.46447,7.2 11.06361,7.2 Z"
     class=""
     id="path4138"
     inkscape:connector-curvature="0"
     style="fill:currentColor" />
</svg>
