<?xml version="1.0" encoding="UTF-8" standalone="no"?>
<svg
   xmlns:dc="http://purl.org/dc/elements/1.1/"
   xmlns:cc="http://creativecommons.org/ns#"
   xmlns:rdf="http://www.w3.org/1999/02/22-rdf-syntax-ns#"
   xmlns:svg="http://www.w3.org/2000/svg"
   xmlns="http://www.w3.org/2000/svg"
   xmlns:sodipodi="http://sodipodi.sourceforge.net/DTD/sodipodi-0.dtd"
   xmlns:inkscape="http://www.inkscape.org/namespaces/inkscape"
   aria-hidden="true"
   data-prefix="fas"
   data-icon="cloud-download-alt"
   role="img"
   viewBox="0 0 25.714285 18.000001"
   class="svg-inline--fa fa-cloud-download-alt fa-w-20"
   style="font-size:48px"
   id="svg4136"
   version="1.1"
   inkscape:version="0.91 r13725"
   sodipodi:docname="cloud-download-h18.svg"
   width="25.714285"
   height="18">
  <metadata
     id="metadata4144">
    <rdf:RDF>
      <cc:Work
         rdf:about="">
        <dc:format>image/svg+xml</dc:format>
        <dc:type
           rdf:resource="http://purl.org/dc/dcmitype/StillImage" />
        <dc:title></dc:title>
      </cc:Work>
    </rdf:RDF>
  </metadata>
  <defs
     id="defs4142" />
  <sodipodi:namedview
     pagecolor="#ffffff"
     bordercolor="#666666"
     borderopacity="1"
     objecttolerance="10"
     gridtolerance="10"
     guidetolerance="10"
     inkscape:pageopacity="0"
     inkscape:pageshadow="2"
     inkscape:window-width="1440"
     inkscape:window-height="837"
     id="namedview4140"
     showgrid="false"
     fit-margin-top="0"
     fit-margin-left="0"
     fit-margin-right="0"
     fit-margin-bottom="0"
     inkscape:zoom="1.25"
     inkscape:cx="6.999999"
     inkscape:cy="4.8999989"
     inkscape:window-x="-8"
     inkscape:window-y="-8"
     inkscape:window-maximized="1"
     inkscape:current-layer="svg4136" />
  <path
     d="m 25.714286,12.857144 c 0,2.840308 -2.302548,5.142857 -5.142857,5.142857 l -14.7857154,0 C 2.590346,18.000001 -9.5367443e-7,15.409654 -9.5367443e-7,12.214287 -9.5367443e-7,9.6921557 1.6140114,7.5473453 3.8653338,6.7553453 A 6.576429,6.576429 0 0 1 3.8571438,6.4285718 C 3.8571438,2.8781451 6.7352888,0 10.285716,0 c 2.382098,0 4.461502,1.2956695 5.57212,3.2206776 0.612772,-0.4100325 1.349486,-0.6492488 2.142166,-0.6492488 2.130226,0 3.857143,1.7269163 3.857143,3.857143 0,0.4895266 -0.09146,0.9576918 -0.257748,1.3885716 2.347714,0.4762837 4.114891,2.5517386 4.114891,5.0400006 z m -9.909129,-2.571429 -2.626586,0 0,-4.5000003 c 0,-0.3550592 -0.287834,-0.6428572 -0.642857,-0.6428572 l -1.928572,0 c -0.355022,0 -0.6428567,0.287798 -0.6428567,0.6428572 l 0,4.5000003 -2.6265859,0 c -0.5727123,0 -0.8595552,0.692431 -0.4545917,1.097431 l 4.2337473,4.233746 c 0.251026,0.251027 0.658084,0.251027 0.90911,0 l 4.233746,-4.233746 c 0.405,-0.405 0.118103,-1.097431 -0.454554,-1.097431 z"
     class=""
     id="path4138"
     inkscape:connector-curvature="0"
     style="fill:currentColor" />
</svg>
