<?xml version="1.0" encoding="UTF-8" standalone="no"?>
<svg
   xmlns:dc="http://purl.org/dc/elements/1.1/"
   xmlns:cc="http://creativecommons.org/ns#"
   xmlns:rdf="http://www.w3.org/1999/02/22-rdf-syntax-ns#"
   xmlns:svg="http://www.w3.org/2000/svg"
   xmlns="http://www.w3.org/2000/svg"
   xmlns:sodipodi="http://sodipodi.sourceforge.net/DTD/sodipodi-0.dtd"
   xmlns:inkscape="http://www.inkscape.org/namespaces/inkscape"
   aria-hidden="true"
   data-prefix="fas"
   data-icon="external-link-alt"
   role="img"
   viewBox="0 0 15.75 14"
   class="svg-inline--fa fa-external-link-alt fa-w-18"
   style="font-size:48px"
   id="svg5241"
   version="1.1"
   inkscape:version="0.91 r13725"
   sodipodi:docname="external-link.svg"
   width="15.75"
   height="14">
  <metadata
     id="metadata5249">
    <rdf:RDF>
      <cc:Work
         rdf:about="">
        <dc:format>image/svg+xml</dc:format>
        <dc:type
           rdf:resource="http://purl.org/dc/dcmitype/StillImage" />
        <dc:title></dc:title>
      </cc:Work>
    </rdf:RDF>
  </metadata>
  <defs
     id="defs5247" />
  <sodipodi:namedview
     pagecolor="#ffffff"
     bordercolor="#666666"
     borderopacity="1"
     objecttolerance="10"
     gridtolerance="10"
     guidetolerance="10"
     inkscape:pageopacity="0"
     inkscape:pageshadow="2"
     inkscape:window-width="1440"
     inkscape:window-height="837"
     id="namedview5245"
     showgrid="false"
     fit-margin-top="0"
     fit-margin-left="0"
     fit-margin-right="0"
     fit-margin-bottom="0"
     inkscape:zoom="7.375"
     inkscape:cx="0.083508301"
     inkscape:cy="-11.752987"
     inkscape:window-x="-8"
     inkscape:window-y="-8"
     inkscape:window-maximized="1"
     inkscape:current-layer="svg5241" />
  <path
     d="m 15.75,0.65625 0,3.49956 c 0,0.58683 -0.709844,0.87446 -1.120301,0.46405 L 13.653336,3.64345 6.9945039,10.30228 c -0.256293,0.25629 -0.6717812,0.25629 -0.9280742,0 L 5.4477227,9.68357 c -0.256293,-0.25629 -0.256293,-0.67181 0,-0.92807 L 12.106609,2.09661 11.130355,1.1203 C 10.718258,0.7082 11.010125,0 11.594406,0 L 15.09375,0 C 15.456191,0 15.75,0.29381 15.75,0.65625 Z m -4.620301,6.74827 -0.4375,0.4375 A 0.65622266,0.65622266 0 0 0 10.5,8.30607 l 0,3.94393 -8.75,0 0,-8.75 7.21875,0 A 0.65633203,0.65633203 0 0 0 9.4327734,3.3078 l 0.4375,-0.4375 C 10.283684,2.45686 9.9908867,1.75 9.40625,1.75 l -8.09375,0 C 0.58761719,1.75 0,2.33762 0,3.0625 l 0,9.625 C 0,13.41238 0.58761719,14 1.3125,14 l 9.625,0 c 0.724883,0 1.3125,-0.58762 1.3125,-1.3125 l 0,-4.81895 c 0,-0.58467 -0.706891,-0.87746 -1.120301,-0.46403 z"
     class=""
     id="path5243"
     style="fill:#268bd2;fill-opacity:1"
     inkscape:connector-curvature="0" />
</svg>
